<?xml version="1.0" encoding="UTF-8"?>
<svg version="1.1" xmlns="http://www.w3.org/2000/svg" width="1016" height="306">
<path d="M0 0 C335.28 0 670.56 0 1016 0 C1016 100.98 1016 201.96 1016 306 C680.72 306 345.44 306 0 306 C0 205.02 0 104.04 0 0 Z " fill="#FEDC00" transform="translate(0,0)"/>
<path d="M0 0 C2.625 0.25 2.625 0.25 4.30078125 1.30932617 C6.32302664 4.27297452 5.75569935 7.1324736 5.4375 10.55078125 C5.38070068 11.29362869 5.32390137 12.03647614 5.26538086 12.80183411 C5.06960418 15.28635696 4.84864873 17.76783974 4.625 20.25 C4.47363557 22.02520037 4.32260076 23.80042888 4.171875 25.57568359 C3.76758891 30.24401539 3.33692296 34.90950737 2.89550781 39.57446289 C2.62175755 42.47181784 2.35356565 45.36965189 2.0859375 48.26757812 C1.91178253 50.13023867 1.73731508 51.99287004 1.5625 53.85546875 C1.44370483 55.13988106 1.44370483 55.13988106 1.32250977 56.45024109 C0.91233342 60.75378402 0.40369698 64.99343903 -0.375 69.25 C6.72014497 67.71226896 12.43972377 65.5300017 18.53125 61.5546875 C20.625 60.25 20.625 60.25 23.625 59.25 C23.66987549 58.54842773 23.71475098 57.84685547 23.76098633 57.12402344 C24.66012829 43.29761623 25.67945788 29.48043141 27 15.6875 C27.15239136 13.88780762 27.15239136 13.88780762 27.30786133 12.05175781 C27.42025146 10.94026367 27.5326416 9.82876953 27.6484375 8.68359375 C27.74044434 7.70447021 27.83245117 6.72534668 27.92724609 5.71655273 C28.625 3.25 28.625 3.25 30.48681641 1.39477539 C33.49490148 -0.21574196 35.40359872 0.39095966 38.625 1.25 C40.72443868 3.34943868 39.84359006 7.27026291 39.84411621 10.09486389 C39.69784052 21.49462156 38.27349345 32.85595487 37.125 44.1875 C36.88344546 46.62428272 36.6425547 49.06113134 36.40234375 51.49804688 C35.81754576 57.41614598 35.22456144 63.3333793 34.625 69.25 C35.88739502 68.94368652 37.14979004 68.63737305 38.45043945 68.32177734 C39.16053665 68.14947601 39.87063385 67.97717468 40.60224915 67.7996521 C43.17291858 67.10111137 45.44400986 66.08822334 47.8125 64.875 C48.61042969 64.47539062 49.40835938 64.07578125 50.23046875 63.6640625 C53.05258235 61.99749623 55.31670886 60.6055599 57.625 58.25 C58.32690785 55.47761085 58.76036353 53.0607377 59.0625 50.25 C60.31856027 41.59539328 62.2434008 33.4719781 68.76953125 27.18359375 C72.33485763 24.56578171 74.97560764 23.34740885 79.375 22.6875 C83.99859511 23.48773762 86.39796746 25.22194571 89.9375 28.1875 C93.06809064 33.86894227 92.38978827 40.09269226 90.89453125 46.265625 C88.52953766 53.33164666 85.62319812 58.50452068 79.25 62.625 C75.36587845 64.36615793 72.82914771 64.59319573 68.625 64.25 C69.05023816 65.85746056 69.49070126 67.46089836 69.9375 69.0625 C70.18113281 69.95582031 70.42476562 70.84914063 70.67578125 71.76953125 C71.66227912 74.34741664 72.40919017 75.62471162 74.625 77.25 C80.88654243 77.12958572 85.95281433 74.94057227 90.328125 70.53515625 C94.4091711 65.84987759 96.80974531 62.62248198 97.0625 56.25 C97.7466967 45.64495123 99.92196212 34.15577786 108.1875 26.8125 C112.04768389 23.65729402 115.53124642 22.8428867 120.55859375 22.8984375 C124.31101338 23.53684538 126.02662668 25.52789462 128.625 28.25 C131.53566333 33.01108503 131.29598525 37.84103729 130.625 43.25 C128.65020669 49.957769 126.21110475 55.80976289 120.625 60.25 C120.0475 60.8275 119.47 61.405 118.875 62 C115.34989268 63.95839295 111.60012932 64.00367788 107.625 64.25 C108.63922644 71.49606789 108.63922644 71.49606789 112.625 77.25 C116.98113547 78.31247207 119.85799128 76.82327097 123.625 74.75 C131.27596699 69.84877904 134.89068184 63.75676761 137.625 55.25 C140.5 55.125 140.5 55.125 143.625 55.25 C144.285 55.91 144.945 56.57 145.625 57.25 C144.98190758 65.80434251 140.04659688 74.6150884 134.26171875 80.85546875 C131.35653234 83.33077078 128.12239465 84.79091921 124.625 86.25 C123.84125 86.6625 123.0575 87.075 122.25 87.5 C117.27551902 88.92128028 112.19379548 89.31264702 107.33984375 87.3046875 C103.27282995 84.88728491 100.32458438 82.18689389 97.625 78.25 C96.696875 79.1575 95.76875 80.065 94.8125 81 C88.64820028 86.25522117 80.74881948 89.05741654 72.625 88.63671875 C68.17015779 87.77533324 65.45832418 85.13094271 62.4375 81.9375 C60.32105014 78.79931572 59.00542271 75.77007791 57.625 72.25 C54.655 73.9 51.685 75.55 48.625 77.25 C48.9859375 78.01441406 49.346875 78.77882813 49.71875 79.56640625 C54.47726401 90.55064276 55.90105343 102.75055688 51.625 114.25 C49.2871233 118.52267122 46.89404395 121.83706211 42.625 124.25 C38.14142742 124.90847848 34.11643715 124.74714572 29.8125 123.3125 C23.752918 117.59917983 21.76060322 110.68203816 21.51147461 102.53955078 C21.51163074 101.17479445 21.5171483 99.81003076 21.52734375 98.4453125 C21.52946617 97.3593428 21.52946617 97.3593428 21.53163147 96.25143433 C21.53718925 93.95924593 21.54973367 91.66715843 21.5625 89.375 C21.56752047 87.81250142 21.57208241 86.25000129 21.57617188 84.6875 C21.58714481 80.87496165 21.6043799 77.06249788 21.625 73.25 C17.665 75.23 17.665 75.23 13.625 77.25 C13.9859375 77.89582031 14.346875 78.54164063 14.71875 79.20703125 C19.73825488 89.39941477 20.3799653 100.44600535 17.890625 111.515625 C15.88080695 117.01791376 13.00167678 121.56166161 7.625 124.25 C2.53237193 124.89115821 -1.24126176 124.90084973 -5.75 122.3125 C-10.81643721 117.27476782 -13.1382522 109.77411637 -13.50439453 102.77734375 C-13.50608643 101.49537109 -13.50608643 101.49537109 -13.5078125 100.1875 C-13.50974609 99.23109619 -13.51167969 98.27469238 -13.51367188 97.28930664 C-13.50916016 96.28633545 -13.50464844 95.28336426 -13.5 94.25 C-13.49806641 93.22575928 -13.49613281 92.20151855 -13.49414062 91.14624023 C-13.45234648 83.80498258 -13.16001973 76.55348711 -12.375 69.25 C-13.86 69.745 -13.86 69.745 -15.375 70.25 C-16.76939664 70.31665376 -18.16669875 70.33538199 -19.5625 70.3125 C-20.820625 70.291875 -22.07875 70.27125 -23.375 70.25 C-23.54 70.95125 -23.705 71.6525 -23.875 72.375 C-26.39752472 77.20983904 -30.86501351 79.99073807 -35.671875 82.40234375 C-39.12585957 83.48545741 -42.19532887 83.5885733 -45.8125 83.625 C-47.08996094 83.65335937 -48.36742187 83.68171875 -49.68359375 83.7109375 C-55.10111163 83.03446437 -58.12688463 80.7061346 -61.625 76.625 C-62.2025 75.84125 -62.78 75.0575 -63.375 74.25 C-64.365 73.26 -64.365 73.26 -65.375 72.25 C-65.82488281 72.62511719 -66.27476562 73.00023437 -66.73828125 73.38671875 C-74.92570364 79.90055981 -82.95327711 84.21940898 -93.64453125 83.65234375 C-97.68469329 83.05701229 -100.5181416 82.25160589 -103.375 79.25 C-109.97757317 68.87206515 -111.03077585 57.44308777 -108.62109375 45.51953125 C-105.89717534 36.2368446 -102.08419223 30.07936457 -94.375 24.25 C-91.14739609 22.63619805 -88.96920831 22.85064352 -85.375 23.25 C-81.99329088 24.82377445 -78.96416563 26.54971139 -76.375 29.25 C-75.16206615 33.50704454 -75.4002963 37.10574836 -76.125 41.4375 C-76.28484375 42.46230469 -76.4446875 43.48710937 -76.609375 44.54296875 C-77.41229429 47.38186194 -78.0222382 48.52037066 -80.375 50.25 C-83.1342847 50.6638927 -84.65908702 50.71763912 -87.01953125 49.17578125 C-89.10269343 46.21613009 -88.66043477 43.62079662 -88.5625 40.0625 C-88.53542969 38.79019531 -88.50835938 37.51789063 -88.48046875 36.20703125 C-88.44566406 35.23121094 -88.41085937 34.25539062 -88.375 33.25 C-93.31172398 37.51959912 -95.89424433 42.13499469 -96.66040039 48.69287109 C-96.7757022 51.28130956 -96.78477326 53.84689249 -96.75 56.4375 C-96.76160156 57.31341797 -96.77320313 58.18933594 -96.78515625 59.09179688 C-96.76312325 63.93538543 -96.57829508 67.3513555 -93.375 71.25 C-90.10523735 72.88488133 -86.9075594 72.77020567 -83.375 72.25 C-76.74071345 69.81894294 -70.93440448 65.40299494 -67.375 59.25 C-66.93950093 56.84219262 -66.87202897 54.54142368 -66.78515625 52.09765625 C-65.52875568 43.37464658 -60.13457301 34.93197994 -53.3671875 29.484375 C-48.17045373 26.264438 -43.35344392 25.77233168 -37.375 25.4375 C-36.5809375 25.37369141 -35.786875 25.30988281 -34.96875 25.24414062 C-30.19186877 24.96150849 -27.27126398 25.13885889 -23.375 28.25 C-17.60143967 34.35347806 -17.06473575 40.48801741 -17.1875 48.5 C-17.1884668 49.72203125 -17.1884668 49.72203125 -17.18945312 50.96875 C-17.23415179 56.96830357 -17.23415179 56.96830357 -18.375 59.25 C-14.91 58.755 -14.91 58.755 -11.375 58.25 C-11.33012451 57.66959961 -11.28524902 57.08919922 -11.23901367 56.49121094 C-10.26246737 44.00406592 -9.17525408 31.52652861 -7.9375 19.0625 C-7.77254028 17.26474121 -7.77254028 17.26474121 -7.60424805 15.43066406 C-7.48863525 14.30499023 -7.37302246 13.17931641 -7.25390625 12.01953125 C-7.1566626 11.02542236 -7.05941895 10.03131348 -6.95922852 9.00708008 C-6.08444654 4.87882565 -4.51627785 0.47539767 0 0 Z " fill="#121022" transform="translate(807.375,106.75)"/>
<path d="M0 0 C0.79997406 -0.00295074 1.59994812 -0.00590149 2.42416382 -0.00894165 C35.67837909 -0.03685451 35.67837909 -0.03685451 48.48046875 9.36328125 C51.57280343 13.49551609 52.17197888 17.47810566 53 22.5 C53.16822266 23.41458984 53.33644531 24.32917969 53.50976562 25.27148438 C54.6875 31.78507653 54.6875 31.78507653 54.6875 34.3125 C56.234375 34.5909375 56.234375 34.5909375 57.8125 34.875 C62.56722706 36.25416018 65.13304962 39.17478005 67.6875 43.3125 C70.264162 49.26717822 71.10181094 57.23011058 68.96484375 63.3984375 C66.93117413 67.30110714 64.68821082 69.55609037 60.6875 71.3125 C59.02230481 71.65310811 57.35592534 71.98808396 55.6875 72.3125 C54.46613608 74.75522784 54.35303479 76.7048493 54.08666992 79.4284668 C53.97938065 80.50500519 53.87209137 81.58154358 53.7615509 82.69070435 C53.64816879 83.8691391 53.53478668 85.04757385 53.41796875 86.26171875 C53.29705368 87.48623749 53.17613861 88.71075623 53.05155945 89.97238159 C52.79155967 92.60929829 52.53296802 95.24631203 52.27655029 97.88357544 C51.87587284 102.00035771 51.46714843 106.11631692 51.05712891 110.23217773 C49.94569821 121.40606072 48.83973876 132.58026235 47.80519104 143.76158142 C47.47431028 147.32544734 47.13345992 150.88831801 46.79092407 154.45108032 C46.64061366 156.04609766 46.49559039 157.64162357 46.35629272 159.23764038 C44.36751244 182.01436663 44.36751244 182.01436663 36.6875 189.3125 C33.84765625 191.078125 33.84765625 191.078125 30.75 192.5625 C29.73035156 193.06265625 28.71070313 193.5628125 27.66015625 194.078125 C22.50200066 196.22001352 17.64695003 196.47149903 12.11328125 196.48046875 C11.3894072 196.48379715 10.66553314 196.48712555 9.91972351 196.49055481 C8.39090608 196.49560211 6.86207771 196.49796382 5.33325195 196.49780273 C3.02471122 196.49997673 0.71665868 196.5181209 -1.59179688 196.53710938 C-13.76517386 196.58556791 -24.42594122 196.18915398 -34.3125 188.3125 C-39.86277835 181.90717877 -40.55099838 172.68167272 -41.25 164.5625 C-41.41419177 162.79676555 -41.57963027 161.03114673 -41.74609375 159.265625 C-41.83487793 158.31494141 -41.92366211 157.36425781 -42.01513672 156.38476562 C-42.56642915 150.68898237 -43.19460451 145.00137327 -43.8125 139.3125 C-44.80301077 130.14236743 -45.76725954 120.97061833 -46.66601562 111.79101562 C-46.73755859 111.06205078 -46.80910156 110.33308594 -46.8828125 109.58203125 C-46.95177734 108.87788086 -47.02074219 108.17373047 -47.09179688 107.44824219 C-47.32269877 105.21380658 -47.5871137 102.98459845 -47.8515625 100.75390625 C-48.31168974 96.63286373 -48.5116091 92.5851083 -48.5625 88.4375 C-48.58828125 87.16132813 -48.6140625 85.88515625 -48.640625 84.5703125 C-48.3125 81.3125 -48.3125 81.3125 -46.953125 79.36328125 C-45.3125 78.3125 -45.3125 78.3125 -42.8125 78.375 C-39.6545519 79.55923054 -38.9826248 80.38018235 -37.3125 83.3125 C-36.80584184 86.22637908 -36.45390761 88.99008435 -36.21484375 91.92578125 C-36.13504776 92.77238815 -36.05525177 93.61899506 -35.97303772 94.49125671 C-35.71983008 97.20154738 -35.48422073 99.91300859 -35.25 102.625 C-34.93062508 106.16321094 -34.60430723 109.70076455 -34.27734375 113.23828125 C-34.19834335 114.10755753 -34.11934296 114.9768338 -34.03794861 115.87245178 C-33.45537201 122.15876044 -32.65344804 128.38539662 -31.77905273 134.63793945 C-31.26851019 138.65896294 -30.89595881 142.67573812 -30.56640625 146.71484375 C-30.50843369 147.41708572 -30.45046112 148.1193277 -30.39073181 148.84284973 C-30.15669343 151.70598564 -29.9262185 154.56924303 -29.71069336 157.43383789 C-29.16002347 170.54922228 -29.16002347 170.54922228 -23.0625 181.6875 C-15.97634303 185.87477457 -8.555861 185.65450302 -0.57128906 185.62817383 C1.4186755 185.62502974 3.40862164 185.64929884 5.3984375 185.67382812 C18.81928356 185.82260176 18.81928356 185.82260176 30.3125 179.875 C32.27891276 176.21032168 32.81217816 172.81486998 33.1965332 168.70385742 C33.32741333 167.32949524 33.32741333 167.32949524 33.4609375 165.92736816 C33.59822266 164.43771545 33.59822266 164.43771545 33.73828125 162.91796875 C33.83713623 161.87402954 33.93599121 160.83009033 34.0378418 159.7545166 C34.36118509 156.33658634 34.68056103 152.91829717 35 149.5 C35.44593028 144.77064413 35.89434522 140.04152688 36.34375 135.3125 C36.45616531 134.12798752 36.56858063 132.94347504 36.68440247 131.72306824 C37.39315888 124.29109418 38.13190718 116.86292117 38.90625 109.4375 C39.00012497 108.53630936 39.09399994 107.63511871 39.1907196 106.70661926 C39.62788349 102.52345178 40.07050865 98.34092439 40.51879883 94.15893555 C40.67536267 92.67237062 40.83186084 91.18579878 40.98828125 89.69921875 C41.12403564 88.43295654 41.25979004 87.16669434 41.3996582 85.86206055 C41.68621975 82.32828762 41.73846937 78.85615253 41.6875 75.3125 C41.07156982 75.34279297 40.45563965 75.37308594 39.82104492 75.40429688 C10.84106166 76.79102654 -17.70167851 76.84521317 -46.5 72.9375 C-47.71127563 72.78510864 -47.71127563 72.78510864 -48.94702148 72.62963867 C-54.83466464 71.75149666 -59.09401409 69.83698397 -63.125 65.25 C-66.71157823 59.39821446 -65.64146663 52.97359757 -64.125 46.625 C-62.54121048 41.23115079 -60.31587955 38.19773824 -55.5078125 35.1796875 C-52.65715443 34.05362684 -50.68169898 34.23536734 -47.625 34.5 C-46.36558594 34.60570312 -45.10617188 34.71140625 -43.80859375 34.8203125 C-40.55773703 35.1509081 -37.33118519 35.58497364 -34.09765625 36.0546875 C-8.36199979 39.69561852 17.89993597 39.4933449 43.6875 36.3125 C43.15027647 33.36827496 42.58429647 30.43491445 42 27.5 C41.85111328 26.66662109 41.70222656 25.83324219 41.54882812 24.97460938 C40.58802889 20.11728107 40.58802889 20.11728107 37.5703125 16.34375 C33.83915613 15.0090274 30.1566849 14.20225879 26.25 13.625 C25.40034668 13.49907471 24.55069336 13.37314941 23.67529297 13.2434082 C15.56561182 12.18882121 7.48292401 12.02180673 -0.6875 12 C-2.53879517 11.99190308 -2.53879517 11.99190308 -4.42749023 11.98364258 C-18.23647281 11.76578656 -18.23647281 11.76578656 -31.3125 15.3125 C-23.79976511 17.16574226 -16.74690751 17.55611827 -9.03125 17.4375 C-7.89594849 17.42992676 -6.76064697 17.42235352 -5.59094238 17.41455078 C-1.997967 17.39029483 1.59467332 17.35299885 5.1875 17.3125 C9.94790695 17.25946629 14.70816051 17.21947195 19.46875 17.1875 C20.56449341 17.17090332 21.66023682 17.15430664 22.78918457 17.13720703 C24.30216125 17.12729736 24.30216125 17.12729736 25.84570312 17.1171875 C26.73487427 17.10671387 27.62404541 17.09624023 28.54016113 17.08544922 C30.6875 17.3125 30.6875 17.3125 32.6875 19.3125 C32.9375 22.3125 32.9375 22.3125 32.6875 25.3125 C27.17921264 30.82078736 16.57737468 29.55837643 9.26153564 29.58825684 C7.55748848 29.58669774 5.85344126 29.58163641 4.14941406 29.57324219 C1.58894683 29.56260982 -0.97080531 29.57313528 -3.53125 29.5859375 C-36.62431313 29.6156944 -36.62431313 29.6156944 -48.5 21 C-50.90508925 17.43383317 -51.06600202 15.53211133 -50.3125 11.3125 C-46.57321165 5.82821042 -41.44389233 4.76973674 -35.3125 3.3125 C-34.54292969 3.11785156 -33.77335937 2.92320313 -32.98046875 2.72265625 C-22.0971928 0.11143242 -11.12678782 0.03598601 0 0 Z " fill="#131121" transform="translate(124.3125,54.6875)"/>
<path d="M0 0 C0.2516818 9.34105538 -0.52872798 18.54451307 -1.390625 27.83203125 C-1.46286034 28.6198316 -1.53509567 29.40763195 -1.60951996 30.21930504 C-1.99094723 34.37649134 -2.37838634 38.53306439 -2.77099609 42.68920898 C-3.1738096 46.96587336 -3.55590362 51.2441299 -3.93341446 55.52309132 C-4.22918982 58.83309795 -4.54014171 62.14155376 -4.85521698 65.44977379 C-5.0027827 67.02683478 -5.14469637 68.60443575 -5.28070831 70.18253517 C-5.47219402 72.38762028 -5.6851613 74.58965191 -5.90332031 76.79223633 C-6.01879211 78.04257156 -6.13426392 79.2929068 -6.25323486 80.58113098 C-7.30920579 85.4156179 -9.4366847 88.71843025 -13.25415039 91.84790039 C-16.82941902 93.34800643 -20.11905567 93.4491261 -23.93359375 93.43359375 C-24.68915054 93.4388356 -25.44470734 93.44407745 -26.22315979 93.44947815 C-27.8158343 93.45588071 -29.40855621 93.45458425 -31.0012207 93.44604492 C-33.42680803 93.4375375 -35.85003579 93.46631234 -38.27539062 93.49804688 C-39.8281243 93.49965929 -41.38086211 93.49908059 -42.93359375 93.49609375 C-43.65252304 93.50732773 -44.37145233 93.51856171 -45.11216736 93.53013611 C-50.20370104 93.46032028 -53.06868325 92.18081271 -57 89 C-60.12128877 85.08322078 -60.6383341 81.16909025 -61.0625 76.3125 C-61.13919922 75.54574951 -61.21589844 74.77899902 -61.29492188 73.98901367 C-62.08457878 65.80755824 -62.65085558 57.60498831 -63.24804688 49.40771484 C-63.77140079 42.39909937 -64.53886535 35.5081111 -65.55859375 28.5546875 C-66.40572357 21.7326686 -66.68074784 14.86392142 -67 8 C-66.15308594 8.15726563 -65.30617188 8.31453125 -64.43359375 8.4765625 C-50.83405924 10.54975661 -40.19593081 8.02186099 -27.6953125 2.5546875 C-18.89177519 -1.21210719 -9.38056436 -3.12685479 0 0 Z " fill="#FFFEFD" transform="translate(160,142)"/>
<path d="M0 0 C2.9375 0.875 2.9375 0.875 4.9375 3.875 C4.56358002 8.58757882 3.45670709 13.1372816 2.42675781 17.74121094 C0.18439729 27.93700595 -0.5480972 37.4616378 -0.0625 47.875 C2.94468671 47.3155234 5.2032052 46.67003276 7.32177734 44.3762207 C11.09387724 38.74283938 12.80577313 32.54856333 14.5625 26.0625 C14.99175781 24.53786133 14.99175781 24.53786133 15.4296875 22.98242188 C16.56854831 18.92134774 17.69225604 14.86140159 18.70996094 10.76806641 C19.08169434 9.29926025 19.08169434 9.29926025 19.4609375 7.80078125 C19.67411621 6.92462158 19.88729492 6.04846191 20.10693359 5.14575195 C21.01831181 2.65406212 21.83113145 1.47101635 23.9375 -0.125 C27 -0.4375 27 -0.4375 29.9375 -0.125 C31.9375 1.875 31.9375 1.875 32.3125 5.8125 C32.22403326 11.92555184 30.73014584 17.67225383 29.36962891 23.59863281 C27.78984164 30.79813223 27.50421452 37.49711107 27.9375 44.875 C30.89911376 44.55162868 30.89911376 44.55162868 33.9375 43.875 C35.30534258 41.62358021 35.30534258 41.62358021 35.9375 38.875 C36.26492188 38.14667969 36.59234375 37.41835937 36.9296875 36.66796875 C38.1658415 33.24219314 38.46052244 30.06143227 38.8125 26.4375 C40.86635899 7.84501155 40.86635899 7.84501155 45.37890625 2.01171875 C47.89325736 0.17794388 49.93523824 0.49971728 52.9375 0.875 C54.875 2 54.875 2 55.9375 3.875 C55.71177636 7.18561339 54.87945701 10.0708951 53.9375 13.25 C52.08271594 19.97359221 51.84451142 26.39269725 51.8125 33.3125 C51.80782715 34.0355835 51.8031543 34.75866699 51.79833984 35.50366211 C51.49463662 38.97956169 51.49463662 38.97956169 52.9375 41.875 C59.02022943 41.875 62.52487092 40.56309036 66.92578125 36.34375 C73.49634209 28.2804598 77.47460134 18.26369599 80.734375 8.484375 C82.07435818 5.57817772 83.16405014 4.42770359 85.9375 2.875 C88.5625 3 88.5625 3 90.9375 3.875 C94.39411222 9.05991833 91.99555811 15.55405567 90.9375 21.4375 C89.6481391 28.87538043 89.30055336 36.34641987 88.9375 43.875 C95.84261336 39.79906503 100.87830517 35.07837241 105.9375 28.875 C108.80474686 29.44844937 109.7989515 29.7364515 111.9375 31.875 C112.65570914 35.14684166 112.37557755 37.14265151 110.65234375 40.0234375 C105.38513379 47.05438292 99.20301696 53.52943361 90.9375 56.875 C90.2775 56.875 89.6175 56.875 88.9375 56.875 C88.98390625 57.92816406 89.0303125 58.98132813 89.078125 60.06640625 C89.46915794 72.90457214 88.58287709 86.58167713 79.9375 96.875 C79.50824219 97.39835937 79.07898438 97.92171875 78.63671875 98.4609375 C75.64862325 101.50795319 73.03488755 102.22756776 68.9375 102.375 C64.63594571 102.1291969 61.48435304 101.47025832 57.9375 98.875 C54.36073924 94.34443637 54.19082225 89.16245379 54.34375 83.57421875 C56.3640932 70.98694893 64.6525036 60.20842845 73.9375 51.875 C76.265625 50.5546875 76.265625 50.5546875 77.9375 49.875 C77.4425 46.41 77.4425 46.41 76.9375 42.875 C76.39222656 43.40609375 75.84695313 43.9371875 75.28515625 44.484375 C68.99300222 50.37856373 63.12609782 54.94080411 54.25 55.3125 C49.3417203 55.07265387 45.73007028 53.48831325 42.0625 50.1875 C41.69125 49.754375 41.32 49.32125 40.9375 48.875 C40.174375 49.82375 39.41125 50.7725 38.625 51.75 C35.78803045 55.27704322 33.78870291 56.77732098 29.125 57.3125 C23.36702993 57.19585604 20.84431832 53.78181832 16.9375 49.875 C16.57398438 50.34550781 16.21046875 50.81601563 15.8359375 51.30078125 C12.18254401 55.82536857 9.01094599 59.22063117 2.9921875 60.1875 C-0.69044974 60.41153877 -2.94575327 59.92566367 -6.375 58.4375 C-11.70049882 53.3596988 -12.25160021 47.46000362 -12.5 40.3125 C-12.26794995 28.30696297 -11.63658947 11.23613421 -4.8125 1 C-3.0625 -0.125 -3.0625 -0.125 0 0 Z " fill="#121022" transform="translate(327.0625,133.125)"/>
<path d="M0 0 C4.34181081 2.25440177 7.23485471 4.39100952 9 9 C10.22333845 18.33361925 7.59419303 25.33045255 3.125 33.375 C-0.60265392 37.97974896 -4.02452582 40.0795375 -9.875 40.75 C-11.24890621 40.84975557 -12.62383557 40.93883714 -14 41 C-13.04598064 48.35731098 -13.04598064 48.35731098 -9 54 C-3.59600453 54.73026966 0.4241622 53.09145532 4.75 49.9375 C10.57237827 44.97882531 13.97218209 39.37388332 16 32 C18.875 31.875 18.875 31.875 22 32 C22.66 32.66 23.32 33.32 24 34 C23.35720036 42.55044799 18.42438675 51.37422002 12.6328125 57.60546875 C9.72650988 60.08764586 6.52530718 61.58561264 3 63 C2.01 63.4125 1.02 63.825 0 64.25 C-6.61237622 65.90309405 -11.32775458 65.4666466 -17.234375 62.22265625 C-19.69869668 60.51616801 -21.34713615 58.47929577 -23 56 C-23.9075 56.78375 -24.815 57.5675 -25.75 58.375 C-30.76066364 62.70239133 -34.79572526 63.52478621 -41.37109375 63.3671875 C-44 63 -44 63 -47 61.0625 C-52.03062371 53.35935744 -53.41670657 44.84136078 -51.54296875 35.79296875 C-51.1779123 34.37739013 -50.8120129 32.96202865 -50.4453125 31.546875 C-49.49350406 26.10319864 -49.85901221 20.50635661 -50 15 C-51.32 14.67 -52.64 14.34 -54 14 C-62.67057028 23.16603144 -64.94602803 34.14508203 -67.30078125 46.20288086 C-67.49414062 47.17878174 -67.6875 48.15468262 -67.88671875 49.16015625 C-68.05389404 50.04324463 -68.22106934 50.92633301 -68.39331055 51.83618164 C-69 54 -69 54 -71 56 C-75.05261287 56.34490322 -76.54754176 56.30163882 -80 54 C-80.230104 51.36051536 -80.27613087 48.95724048 -80.1875 46.32421875 C-80.17614014 45.56204544 -80.16478027 44.79987213 -80.15307617 44.01460266 C-80.10399784 40.74945368 -80.0199027 37.48542453 -79.93847656 34.22094727 C-79.88408105 31.83875783 -79.84787744 29.45675453 -79.8125 27.07421875 C-79.78760498 26.34071701 -79.76270996 25.60721527 -79.73706055 24.85148621 C-79.67279039 20.3511706 -80.29883517 17.62149281 -83 14 C-85.8017367 13.70829092 -85.8017367 13.70829092 -89 15 C-98.01375926 25.00775777 -100.38314979 40.98778834 -101.92456055 53.88061523 C-102.19073646 55.93449485 -102.58578973 57.97078809 -103 60 C-106.45245824 62.30163882 -107.94738713 62.34490322 -112 62 C-114 60 -114 60 -114.1875 56.0625 C-114.1176989 52.66315286 -113.85089141 49.32172418 -113.49609375 45.94140625 C-112.93418211 39.91008645 -112.85186377 33.92898061 -112.875 27.875 C-112.87113281 26.85535156 -112.86726563 25.83570313 -112.86328125 24.78515625 C-112.86930459 20.0929781 -113.0060397 15.58992186 -113.6953125 10.9453125 C-114 7 -114 7 -112.73779297 5.26123047 C-111 4 -111 4 -107.5 3.875 C-104 5 -104 5 -102.87890625 6.63671875 C-102.0625 8.5625 -102.0625 8.5625 -101 12 C-100.55269531 11.44570312 -100.10539062 10.89140625 -99.64453125 10.3203125 C-95.2355781 5.03708932 -92.62055231 2.40228359 -85.625 1.625 C-81.29922537 2.07249393 -78.25642923 3.16735265 -75 6 C-72.75909681 8.86776378 -70.83272076 11.85819298 -69 15 C-68.63648438 14.39671875 -68.27296875 13.7934375 -67.8984375 13.171875 C-64.8556267 8.33458603 -62.36553386 4.41975056 -57 2 C-52.7780661 1.04082694 -49.5312638 1.096129 -45.75 3.328125 C-41.51404397 6.78541264 -38.00921789 10.4842745 -37 16 C-35.97722251 27.93799296 -37.78750333 40.12978655 -39 52 C-33.88465678 50.98196977 -33.88465678 50.98196977 -30.0390625 47.6875 C-29.57242188 46.800625 -29.10578125 45.91375 -28.625 45 C-28.14289063 44.113125 -27.66078125 43.22625 -27.1640625 42.3125 C-25.34553413 38.69985305 -24.76172804 36.00448877 -24.40527344 31.9309082 C-23.40493999 20.76463001 -21.73504405 10.8419348 -13 3 C-8.60365514 0.10028318 -5.23682515 -0.65460314 0 0 Z " fill="#121022" transform="translate(571,130)"/>
<path d="M0 0 C2 2 2 2 2 5 C3.2375 4.51466797 3.2375 4.51466797 4.5 4.01953125 C8.39843419 2.88393826 11.97832737 2.66860116 16 2.6875 C17.02867187 2.66333008 17.02867187 2.66333008 18.078125 2.63867188 C23.71024273 2.63329772 27.7372118 3.87003794 31.86328125 7.75390625 C32.34152344 8.35074219 32.81976563 8.94757813 33.3125 9.5625 C34.04919922 10.46162109 34.04919922 10.46162109 34.80078125 11.37890625 C38.22221851 16.00397617 37.70209365 21.49710385 37 27 C35.36230086 31.2303249 33.31954549 35.10647721 31 39 C31.75667969 39.25265625 32.51335937 39.5053125 33.29296875 39.765625 C37.94986784 41.88911723 40.07890624 45.34454945 42 50 C43.02130695 57.37152997 42.88874094 63.52479416 39 70 C33.00549016 77.17896721 24.63605239 80.12131587 16 83 C0.71833481 83.93268379 0.71833481 83.93268379 -6 80 C-6 80.66 -6 81.32 -6 82 C-9.375 82.625 -9.375 82.625 -13 83 C-15 81 -15 81 -15.23774719 78.94775391 C-15.11959509 70.72572036 -14.50868831 62.56263788 -13.79296875 54.375 C-13.66560907 52.89575411 -13.53827494 51.41650603 -13.41096497 49.93725586 C-13.14474214 46.86099613 -12.87421236 43.78514728 -12.60131836 40.70947266 C-12.25258528 36.76853287 -11.9210236 32.82634084 -11.59330273 28.88360596 C-11.3372955 25.83907255 -11.06919893 22.79569197 -10.79772377 19.75250244 C-10.67007385 18.29842528 -10.54691626 16.84394641 -10.42836571 15.38909912 C-10.26213923 13.36377897 -10.07718488 11.3400221 -9.89135742 9.31640625 C-9.7914299 8.16599854 -9.69150238 7.01559082 -9.58854675 5.83032227 C-8.39438805 0.08761119 -5.53161117 -0.58846927 0 0 Z " fill="#111022" transform="translate(271,107)"/>
<path d="M0 0 C2.92908678 1.07493729 5.29813463 2.39889459 8 4 C8.33 3.67 8.66 3.34 9 3 C15.6 3.6 15.6 3.6 18 6 C17.73791085 12.68327335 15.73365694 19.00864988 13.9375 25.4140625 C12.69459146 30.16818768 11.85762046 34.70658903 11.875 39.625 C11.87242187 40.35976562 11.86984375 41.09453125 11.8671875 41.8515625 C12.00089018 44.01439998 12.40710315 45.92015551 13 48 C17.34906562 47.91301869 20.16779873 47.37782357 23.1875 44.25 C26.55737371 39.94554799 27.77093841 35.01339703 29.140625 29.79296875 C30 27 30 27 32 25 C35.29714793 25.32971479 36.6226839 25.6226839 39 28 C39.01838502 37.06381512 33.83427174 46.84793277 27.83203125 53.34765625 C22.72960321 57.8738538 19.47416648 59.46756984 12.609375 59.41796875 C7.26528343 58.56195408 4.33165405 54.63235012 1.0625 50.625 C0.711875 50.08875 0.36125 49.5525 0 49 C-0.886875 49.78375 -1.77375 50.5675 -2.6875 51.375 C-7.20802259 55.09468409 -11.01452608 56.50798217 -17.01171875 56.3046875 C-21.11968458 55.67517604 -23.65689088 53.62257593 -26.2578125 50.48046875 C-30.85501573 43.10243978 -29.9115934 33.64502929 -28.3046875 25.45703125 C-25.4476127 15.21717912 -20.6740014 7.25958864 -12 1 C-8.28350139 -0.85824931 -4.05491447 -0.45382037 0 0 Z " fill="#121022" transform="translate(642,133)"/>
<path d="M0 0 C6.72723774 -0.23836669 12.98325951 0.1513108 19.58984375 1.46484375 C30.99974513 3.25540101 42.4823119 3.19859815 54 3.1875 C54.86284607 3.18789276 55.72569214 3.18828552 56.61468506 3.18869019 C70.02435729 3.18136862 83.50758387 3.1379056 96.703125 0.44921875 C99.04631798 -0.00905879 101.23931125 -0.20081054 103.625 -0.25 C104.38039063 -0.27578125 105.13578125 -0.3015625 105.9140625 -0.328125 C108 0 108 0 109.75 1.265625 C111.91471177 4.26916258 111.56300365 7.45159543 111 11 C109.15968331 13.59317352 107.21960823 14.75570458 104.08810425 15.38296509 C89.20478495 17.62978953 74.6122168 18.47447279 59.56689453 18.39111328 C56.13403417 18.37504229 52.70235624 18.39106596 49.26953125 18.41015625 C11.92539066 18.44546891 11.92539066 18.44546891 -2 13 C-2.05447047 11.58376784 -2.09300508 10.16691809 -2.125 8.75 C-2.14820312 7.96109375 -2.17140625 7.1721875 -2.1953125 6.359375 C-1.9828378 3.79268059 -1.28654105 2.2083933 0 0 Z " fill="#FBD900" transform="translate(72,101)"/>
<path d="M0 0 C2.35053833 3.52580749 2.60796895 5.44262889 2.5 9.5859375 C1.38187368 14.98439114 -2.60855933 18.26032492 -6.90625 21.38671875 C-13.86757796 25.20206196 -22.29898928 24.74414261 -30 24 C-30.99 23.34 -31.98 22.68 -33 22 C-33.328125 20.00390625 -33.328125 20.00390625 -33.25 17.5625 C-33.22421875 16.67949219 -33.1984375 15.79648438 -33.171875 14.88671875 C-32.89553872 10.24552533 -32.49218744 5.6230463 -32 1 C-30.58398286 0.51891725 -29.16715563 0.04021859 -27.75 -0.4375 C-26.96109375 -0.70433594 -26.1721875 -0.97117188 -25.359375 -1.24609375 C-16.92521162 -3.94111615 -7.83574049 -4.59923898 0 0 Z " fill="#F9D800" transform="translate(300,156)"/>
<path d="M0 0 C3.9265585 3.19032878 3.9265585 3.19032878 4.3359375 5.61328125 C4.34882813 6.38027344 4.36171875 7.14726562 4.375 7.9375 C4.40335937 8.69675781 4.43171875 9.45601562 4.4609375 10.23828125 C3.80770968 13.62067276 2.41161676 15.18942678 0 17.625 C-7.35269133 21.66001353 -14.66246688 23.47192774 -23 22.625 C-22.85845864 20.06219792 -22.71191438 17.49984515 -22.5625 14.9375 C-22.52318359 14.21626953 -22.48386719 13.49503906 -22.44335938 12.75195312 C-21.95804112 4.57620713 -21.95804112 4.57620713 -21 1.625 C-14.45512239 -1.82593546 -6.90678121 -3.16560805 0 0 Z " fill="#F8D700" transform="translate(293,121.375)"/>
<path d="M0 0 C0.01417969 1.05058594 0.02835938 2.10117188 0.04296875 3.18359375 C0.29880293 12.2098105 0.79115029 19.96233314 7.6640625 26.609375 C9 28 9 28 9 29.9375 C7.53417985 32.96075407 5.8353208 34.21251515 3 36 C-1.26524343 37.24079809 -3.19224536 37.37280984 -7.25 35.5 C-11.37091121 31.75371708 -12.75350859 28.17734075 -13.375 22.6875 C-12.66334852 15.6895938 -9.19266598 0 0 0 Z " fill="#F7D601" transform="translate(764,144)"/>
<path d="M0 0 C0.99 0.66 1.98 1.32 3 2 C3.46734928 7.01170613 2.63372704 11.25670954 1.25 16.0625 C0.76273438 17.81240234 0.76273438 17.81240234 0.265625 19.59765625 C-1.83255975 25.23814672 -4.80319936 29.83121912 -10 33 C-14.29268293 32.70731707 -14.29268293 32.70731707 -16 31 C-17.06726039 20.77321371 -16.2046639 12.57347267 -10 4 C-6.58124381 0.89633655 -4.7048392 -0.74286935 0 0 Z " fill="#F8D700" transform="translate(641,144)"/>
<path d="M0 0 C4.42326378 1.35155282 6.40412982 3.19890438 9 7 C10.14330513 10.42991538 10.20381651 13.1986416 10.25 16.8125 C10.28867187 18.61654297 10.28867187 18.61654297 10.328125 20.45703125 C9.96778251 24.34787218 9.11446475 26.72773088 7 30 C3.8125 30.875 3.8125 30.875 1 31 C-0.7706504 27.94291967 -1.24808843 25.74566252 -1.23046875 22.2265625 C-1.22853516 21.3190625 -1.22660156 20.4115625 -1.22460938 19.4765625 C-1.20624023 18.06503906 -1.20624023 18.06503906 -1.1875 16.625 C-1.18685547 15.69171875 -1.18621094 14.7584375 -1.18554688 13.796875 C-1.15555703 9.09180086 -0.96693166 4.62580108 0 0 Z " fill="#F6D601" transform="translate(806,188)"/>
<path d="M0 0 C4.88765533 1.35768204 6.52591098 3.67034421 9 8 C10.84446157 13.53338472 11.143829 20.57472948 9.28125 26.15234375 C7.63789655 28.86255166 6.25945214 29.91744705 3.25 30.875 C2.5075 30.91625 1.765 30.9575 1 31 C-0.7706504 27.94291967 -1.24808843 25.74566252 -1.23046875 22.2265625 C-1.22853516 21.3190625 -1.22660156 20.4115625 -1.22460938 19.4765625 C-1.20624023 18.06503906 -1.20624023 18.06503906 -1.1875 16.625 C-1.18685547 15.69171875 -1.18621094 14.7584375 -1.18554688 13.796875 C-1.15555703 9.09180086 -0.96693166 4.62580108 0 0 Z " fill="#F8D700" transform="translate(841,188)"/>
<path d="M0 0 C0.48774382 8.49035533 -0.56496722 16.1612847 -4.875 23.625 C-7 26 -7 26 -9.75 26.375 C-10.4925 26.25125 -11.235 26.1275 -12 26 C-12.82837345 20.08304677 -11.39919039 16.02640149 -8.75 10.75 C-8.3003186 9.84677002 -8.3003186 9.84677002 -7.84155273 8.92529297 C-3.16018562 0 -3.16018562 0 0 0 Z " fill="#F4D401" transform="translate(405,198)"/>
<path d="M0 0 C3.53571429 0.53571429 3.53571429 0.53571429 5 2 C5.06284737 7.97049993 3.94986119 12.37301975 0 17 C-2.67344514 18.78229676 -3.73770359 19 -7 19 C-6.6646931 11.75737096 -5.27686552 5.27686552 0 0 Z " fill="#F2D201" transform="translate(565,142)"/>
<path d="M0 0 C2.13745922 0.25146579 3.45925779 0.45925779 5 2 C5.3971148 6.6859547 5.46568973 9.08586831 3.3125 13.3125 C1.01549767 15.98198919 -0.83255647 17.49963201 -4 19 C-4.66 19 -5.32 19 -6 19 C-6.39801399 12.76444753 -5.64234579 6.1960469 -1.52734375 1.21875 C-1.02332031 0.8165625 -0.51929688 0.414375 0 0 Z " fill="#F4D301" transform="translate(884,142)"/>
<path d="M0 0 C2.0625 0.4375 2.0625 0.4375 4 1 C5.34361653 6.37446611 4.96435533 9.4122583 2.24609375 14.265625 C0.50513846 16.6887728 -1.25514152 17.87390421 -4 19 C-4.99 19 -5.98 19 -7 19 C-5.31734317 5.31734317 -5.31734317 5.31734317 0 0 Z " fill="#F4D301" transform="translate(923,142)"/>
<path d="M0 0 C0.12190678 8.39802254 -0.15672251 16.64251778 -1 25 C-1.33 25 -1.66 25 -2 25 C-2.33 26.98 -2.66 28.96 -3 31 C-3.33 31 -3.66 31 -4 31 C-4.02578125 30.09378906 -4.0515625 29.18757813 -4.078125 28.25390625 C-4.43618137 20.56383187 -5.40669314 14.78236669 -9 8 C-9.33 7.01 -9.66 6.02 -10 5 C-8.52227402 4.1641146 -7.04277811 3.33135744 -5.5625 2.5 C-4.32693359 1.80390625 -4.32693359 1.80390625 -3.06640625 1.09375 C-1 0 -1 0 0 0 Z " fill="#EBCB02" transform="translate(830,179)"/>
<path d="M0 0 C3 1 3 1 4 3 C4.0716735 5.55157655 4.09308442 8.07472971 4.0625 10.625 C4.05798828 11.33140625 4.05347656 12.0378125 4.04882812 12.765625 C4.03703875 14.51045275 4.01910324 16.255237 4 18 C3.01 18 2.02 18 1 18 C-1.9428429 12.94198876 -3.82672285 9.0232665 -3 3 C-1.5 1.0625 -1.5 1.0625 0 0 Z " fill="#ECCD02" transform="translate(776,144)"/>
</svg>
